<?xml version="1.0" encoding="UTF-8" standalone="no"?>
<svg
   viewBox="0 0 40 40"
   width="40"
   height="40"
   version="1.1"
   id="svg4"
   sodipodi:docname="rotateRight.svg"
   inkscape:version="1.2.2 (b0a8486541, 2022-12-01)"
   xmlns:inkscape="http://www.inkscape.org/namespaces/inkscape"
   xmlns:sodipodi="http://sodipodi.sourceforge.net/DTD/sodipodi-0.dtd"
   xmlns="http://www.w3.org/2000/svg"
   xmlns:svg="http://www.w3.org/2000/svg">
  <defs
     id="defs8" />
  <sodipodi:namedview
     id="namedview6"
     pagecolor="#ffffff"
     bordercolor="#000000"
     borderopacity="0.25"
     inkscape:showpageshadow="2"
     inkscape:pageopacity="0.0"
     inkscape:pagecheckerboard="0"
     inkscape:deskcolor="#d1d1d1"
     showgrid="false"
     inkscape:zoom="15.7"
     inkscape:cx="25.254777"
     inkscape:cy="25.636943"
     inkscape:window-width="1854"
     inkscape:window-height="1011"
     inkscape:window-x="0"
     inkscape:window-y="0"
     inkscape:window-maximized="1"
     inkscape:current-layer="svg4"
     showguides="true">
    <sodipodi:guide
       position="33.184713,9.872611"
       orientation="0,-1"
       id="guide1822"
       inkscape:locked="false" />
  </sodipodi:namedview>
  <path
     d="m 20.238605,2.5993726 c -9.319539,0 -16.9005278,7.6211674 -16.9005278,16.9900974 0,9.368931 7.5809888,16.990099 16.9005278,16.990099 9.319539,0 16.900527,-7.621168 16.900527,-16.990099 0,-9.36893 -7.580988,-16.9900974 -16.900527,-16.9900974 z"
     id="path2"
     sodipodi:nodetypes="sssss"
     style="stroke-width:0.73675" />
  <g
     inkscape:groupmode="layer"
     id="layer1"
     inkscape:label="Layer 1" />
  <path
     fill-rule="evenodd"
     d="m 20.451256,11.701658 a 8.528381,8.0263806 0 1 0 7.754004,4.677774 0.8528381,0.80263806 0 0 1 1.548753,-0.6694 10.234057,9.6316563 0 1 1 -9.302757,-5.61365 z"
     id="path1657"
     style="fill:#ffffff;stroke-width:1.65472" />
  <path
     d="M 20.451256,14.054993 V 7.7430476 a 0.42641907,0.40131903 0 0 1 0.699328,-0.308213 l 4.025394,3.1559714 c 0.204682,0.160527 0.204682,0.455899 0,0.616427 l -4.025394,3.155971 a 0.42641907,0.40131903 0 0 1 -0.699328,-0.308211"
     id="path1659"
     style="fill:#ffffff;stroke-width:1.65472" />
</svg>
